<svg width="40" height="40" viewBox="0 0 40 40" fill="none" xmlns="http://www.w3.org/2000/svg">
<rect width="40" height="40" fill="white"/>
<path fill-rule="evenodd" clip-rule="evenodd" d="M35 20C35 28.2843 28.2843 35 20 35C11.7157 35 5 28.2843 5 20C5 11.7157 11.7157 5 20 5C28.2843 5 35 11.7157 35 20ZM36 20C36 28.8366 28.8366 36 20 36C11.1634 36 4 28.8366 4 20C4 11.1634 11.1634 4 20 4C28.8366 4 36 11.1634 36 20ZM20.3536 10.6464L20 10.2929L19.6464 10.6464L11.6464 18.6464C11.4512 18.8417 11.4512 19.1583 11.6464 19.3536C11.8417 19.5488 12.1583 19.5488 12.3536 19.3536L19.5 12.2071V31C19.5 31.2761 19.7239 31.5 20 31.5C20.2761 31.5 20.5 31.2761 20.5 31V12.2071L27.6464 19.3536C27.8417 19.5488 28.1583 19.5488 28.3536 19.3536C28.5488 19.1583 28.5488 18.8417 28.3536 18.6464L20.3536 10.6464Z" fill="black"/>
</svg>
