<svg width="16" height="16" viewBox="0 0 16 16" fill="none" xmlns="http://www.w3.org/2000/svg">
<path fill-rule="evenodd" clip-rule="evenodd" d="M14 8C14 11.3137 11.3137 14 8 14C4.68629 14 2 11.3137 2 8C2 4.68629 4.68629 2 8 2C11.3137 2 14 4.68629 14 8ZM15 8C15 11.866 11.866 15 8 15C4.13401 15 1 11.866 1 8C1 4.13401 4.13401 1 8 1C11.866 1 15 4.13401 15 8ZM5 7.5C5 7.77614 4.77614 8 4.5 8C4.22386 8 4 7.77614 4 7.5C4 7.22386 4.22386 7 4.5 7C4.77614 7 5 7.22386 5 7.5ZM6 7.5C6 8.32843 5.32843 9 4.5 9C3.67157 9 3 8.32843 3 7.5C3 6.67157 3.67157 6 4.5 6C5.32843 6 6 6.67157 6 7.5ZM10.5 8C11.3284 8 12 7.32843 12 6.5C12 5.67157 11.3284 5 10.5 5C9.67157 5 9 5.67157 9 6.5C9 7.32843 9.67157 8 10.5 8ZM10.5 9C11.8807 9 13 7.88071 13 6.5C13 5.11929 11.8807 4 10.5 4C9.11929 4 8 5.11929 8 6.5C8 7.88071 9.11929 9 10.5 9ZM6.44721 9.77639L6.22361 9.32918L5.77639 9.55279L3.77639 10.5528C3.5294 10.6763 3.42929 10.9766 3.55279 11.2236C3.67628 11.4706 3.97662 11.5707 4.22361 11.4472L5.77639 10.6708L6.55279 12.2236L6.72358 12.5652L7.09806 12.4903L9.59806 11.9903L9.74651 11.9606L9.85355 11.8536L10.8536 10.8536C11.0488 10.6583 11.0488 10.3417 10.8536 10.1464C10.6583 9.95118 10.3417 9.95118 10.1464 10.1464L9.25349 11.0394L7.27642 11.4348L6.44721 9.77639Z" fill="url(#paint0_linear_17_2)"/>
<defs>
<linearGradient id="paint0_linear_17_2" x1="8" y1="1" x2="8" y2="15" gradientUnits="userSpaceOnUse">
<stop stop-color="#E4730B"/>
<stop offset="0.491" stop-color="#BE0B0B"/>
<stop offset="1" stop-color="#3A50C2"/>
</linearGradient>
</defs>
</svg>
