<svg xmlns="http://www.w3.org/2000/svg">
<symbol id="logo-icon" viewBox="0 0 16 16" fill="none">
<path fill-rule="evenodd" clip-rule="evenodd" d="M14 8C14 11.3137 11.3137 14 8 14C4.68629 14 2 11.3137 2 8C2 4.68629 4.68629 2 8 2C11.3137 2 14 4.68629 14 8ZM15 8C15 11.866 11.866 15 8 15C4.13401 15 1 11.866 1 8C1 4.13401 4.13401 1 8 1C11.866 1 15 4.13401 15 8ZM12 7C12 8.28303 11.1655 9 10.5 9C9.83455 9 9 8.28303 9 7C9 5.71697 9.83455 5 10.5 5C11.1655 5 12 5.71697 12 7ZM13 7C13 8.65685 11.8807 10 10.5 10C9.11929 10 8 8.65685 8 7C8 5.34315 9.11929 4 10.5 4C11.8807 4 13 5.34315 13 7ZM5 9C5.55228 9 6 8.55228 6 8C6 7.44772 5.55228 7 5 7C4.44772 7 4 7.44772 4 8C4 8.55228 4.44772 9 5 9ZM5 10C6.10457 10 7 9.10457 7 8C7 6.89543 6.10457 6 5 6C3.89543 6 3 6.89543 3 8C3 9.10457 3.89543 10 5 10ZM6.9 10.7L6.6162 10.3216L6.22265 10.584L4.72265 11.584C4.49289 11.7372 4.4308 12.0476 4.58397 12.2774C4.73715 12.5071 5.04759 12.5692 5.27735 12.416L6.3838 11.6784L7.6 13.3L7.75 13.5H8H9.5H9.75L9.9 13.3L11.4 11.3C11.5657 11.0791 11.5209 10.7657 11.3 10.6C11.0791 10.4343 10.7657 10.4791 10.6 10.7L9.25 12.5H8.25L6.9 10.7Z" fill="white"/>
</symbol>
</svg>